<svg
    xmlns="http://www.w3.org/2000/svg"
    width="135"
    height="40"
    fill="none"
    viewBox="0 0 135 40"
    ><path
    fill="#000"
    d="M130 40H5c-2.8 0-5-2.2-5-5V5c0-2.8 2.2-5 5-5h125c2.8 0 5 2.2 5 5v30c0 2.7-2.2 5-5 5"
    ></path><path
    fill="#A6A6A6"
    d="M130 .8c2.3 0 4.2 1.9 4.2 4.2v30c0 2.3-1.9 4.2-4.2 4.2H5C2.7 39.2.8 37.3.8 35V5C.8 2.7 2.7.8 5 .8zm0-.8H5C2.2 0 0 2.2 0 5v30c0 2.8 2.2 5 5 5h125c2.8 0 5-2.2 5-5V5c0-2.7-2.2-5-5-5"
    ></path><path
    fill="#fff"
    stroke="#fff"
    stroke-miterlimit="10"
    stroke-width="0.2"
    d="M47.4 10.2c0 .8-.2 1.5-.7 2-.6.6-1.3.9-2.2.9s-1.6-.3-2.2-.9-.9-1.3-.9-2.2.3-1.6.9-2.2 1.3-.9 2.2-.9q.6 0 1.2.3c.4.2.7.4.9.7l-.5.5c-.4-.5-.9-.7-1.6-.7-.6 0-1.2.2-1.6.7-.5.4-.7 1-.7 1.7s.2 1.3.7 1.7 1 .7 1.6.7c.7 0 1.2-.2 1.7-.7.3-.3.5-.7.5-1.2h-2.2v-.7h2.9zM52 7.7h-2.7v1.9h2.5v.7h-2.5v1.9H52v.8h-3.5V7H52zM55.3 13h-.8V7.7h-1.7V7H57v.7h-1.7zM59.9 13V7h.8v6zM64.1 13h-.8V7.7h-1.7V7h4.1v.7H64V13zM73.6 12.2c-.6.6-1.3.9-2.2.9s-1.6-.3-2.2-.9-.9-1.3-.9-2.2.3-1.6.9-2.2 1.3-.9 2.2-.9 1.6.3 2.2.9.9 1.3.9 2.2-.3 1.6-.9 2.2Zm-3.8-.5c.4.4 1 .7 1.6.7s1.2-.2 1.6-.7c.4-.4.7-1 .7-1.7s-.2-1.3-.7-1.7c-.4-.4-1-.7-1.6-.7s-1.2.2-1.6.7c-.4.4-.7 1-.7 1.7s.2 1.3.7 1.7ZM75.6 13V7h.9l2.9 4.7V7h.8v6h-.8l-3.1-4.9V13z"
    ></path><path
    fill="#fff"
    d="M68.1 21.8c-2.4 0-4.3 1.8-4.3 4.3 0 2.4 1.9 4.3 4.3 4.3s4.3-1.8 4.3-4.3c0-2.6-1.9-4.3-4.3-4.3m0 6.8c-1.3 0-2.4-1.1-2.4-2.6s1.1-2.6 2.4-2.6 2.4 1 2.4 2.6c0 1.5-1.1 2.6-2.4 2.6m-9.3-6.8c-2.4 0-4.3 1.8-4.3 4.3 0 2.4 1.9 4.3 4.3 4.3s4.3-1.8 4.3-4.3c0-2.6-1.9-4.3-4.3-4.3m0 6.8c-1.3 0-2.4-1.1-2.4-2.6s1.1-2.6 2.4-2.6 2.4 1 2.4 2.6c0 1.5-1.1 2.6-2.4 2.6m-11.1-5.5v1.8H52c-.1 1-.5 1.8-1 2.3-.6.6-1.6 1.3-3.3 1.3-2.7 0-4.7-2.1-4.7-4.8s2.1-4.8 4.7-4.8c1.4 0 2.5.6 3.3 1.3l1.3-1.3c-1.1-1-2.5-1.8-4.5-1.8-3.6 0-6.7 3-6.7 6.6s3.1 6.6 6.7 6.6c2 0 3.4-.6 4.6-1.9 1.2-1.2 1.6-2.9 1.6-4.2 0-.4 0-.8-.1-1.1zm45.4 1.4c-.4-1-1.4-2.7-3.6-2.7s-4 1.7-4 4.3c0 2.4 1.8 4.3 4.2 4.3 1.9 0 3.1-1.2 3.5-1.9l-1.4-1c-.5.7-1.1 1.2-2.1 1.2s-1.6-.4-2.1-1.3l5.7-2.4zm-5.8 1.4c0-1.6 1.3-2.5 2.2-2.5.7 0 1.4.4 1.6.9zM82.6 30h1.9V17.5h-1.9zm-3-7.3c-.5-.5-1.3-1-2.3-1-2.1 0-4.1 1.9-4.1 4.3s1.9 4.2 4.1 4.2c1 0 1.8-.5 2.2-1h.1v.6c0 1.6-.9 2.5-2.3 2.5-1.1 0-1.9-.8-2.1-1.5l-1.6.7c.5 1.1 1.7 2.5 3.8 2.5 2.2 0 4-1.3 4-4.4V22h-1.8zm-2.2 5.9c-1.3 0-2.4-1.1-2.4-2.6s1.1-2.6 2.4-2.6 2.3 1.1 2.3 2.6-1 2.6-2.3 2.6m24.4-11.1h-4.5V30h1.9v-4.7h2.6c2.1 0 4.1-1.5 4.1-3.9s-2-3.9-4.1-3.9m.1 6h-2.7v-4.3h2.7c1.4 0 2.2 1.2 2.2 2.1-.1 1.1-.9 2.2-2.2 2.2m11.5-1.8c-1.4 0-2.8.6-3.3 1.9l1.7.7c.4-.7 1-.9 1.7-.9 1 0 1.9.6 2 1.6v.1c-.3-.2-1.1-.5-1.9-.5-1.8 0-3.6 1-3.6 2.8 0 1.7 1.5 2.8 3.1 2.8 1.3 0 1.9-.6 2.4-1.2h.1v1h1.8v-4.8c-.2-2.2-1.9-3.5-4-3.5m-.2 6.9c-.6 0-1.5-.3-1.5-1.1 0-1 1.1-1.3 2-1.3.8 0 1.2.2 1.7.4-.2 1.2-1.2 2-2.2 2m10.5-6.6-2.1 5.4h-.1l-2.2-5.4h-2l3.3 7.6-1.9 4.2h1.9l5.1-11.8zm-16.8 8h1.9V17.5h-1.9z"
    ></path><path
    fill="url(#paint0_linear)"
    d="M10.4 7.5c-.3.3-.5.8-.5 1.4V31c0 .6.2 1.1.5 1.4l.1.1 12.4-12.4v-.2z"
    ></path><path
    fill="url(#paint1_linear)"
    d="m27 24.3-4.1-4.1v-.3l4.1-4.1.1.1 4.9 2.8c1.4.8 1.4 2.1 0 2.9z"
    ></path><path
    fill="url(#paint2_linear)"
    d="M27.1 24.2 22.9 20 10.4 32.5c.5.5 1.2.5 2.1.1z"></path><path
    fill="url(#paint3_linear)"
    d="M27.1 15.8 12.5 7.5c-.9-.5-1.6-.4-2.1.1L22.9 20z"></path><path
    fill="#000"
    d="m27 24.1-14.5 8.2c-.8.5-1.5.4-2 0l-.1.1.1.1c.5.4 1.2.5 2 0z"
    opacity="0.2"></path><path
    fill="#000"
    d="M10.4 32.3c-.3-.3-.4-.8-.4-1.4v.1c0 .6.2 1.1.5 1.4v-.1zM32 21.3l-5 2.8.1.1 4.9-2.8c.7-.4 1-.9 1-1.4 0 .5-.4.9-1 1.3"
    opacity="0.12"></path><path
    fill="#fff"
    d="M12.5 7.6 32 18.7c.6.4 1 .8 1 1.3 0-.5-.3-1-1-1.4L12.5 7.5C11.1 6.7 10 7.4 10 9v.1c0-1.6 1.1-2.3 2.5-1.5"
    opacity="0.25"></path><defs
    ><linearGradient
        id="paint0_linear"
        x1="21.8"
        x2="5.017"
        y1="8.71"
        y2="25.492"
        gradientUnits="userSpaceOnUse"
        ><stop stop-color="#00A0FF"></stop><stop
        offset="0.007"
        stop-color="#00A1FF"></stop><stop
        offset="0.26"
        stop-color="#00BEFF"></stop><stop
        offset="0.512"
        stop-color="#00D2FF"></stop><stop
        offset="0.76"
        stop-color="#00DFFF"></stop><stop
        offset="1"
        stop-color="#00E3FF"></stop>
    </linearGradient><linearGradient
        id="paint1_linear"
        x1="33.834"
        x2="9.637"
        y1="20.001"
        y2="20.001"
        gradientUnits="userSpaceOnUse"
        ><stop stop-color="#FFE000"></stop><stop
        offset="0.409"
        stop-color="#FFBD00"></stop><stop
        offset="0.775"
        stop-color="orange"></stop><stop offset="1" stop-color="#FF9C00"
        ></stop>
    </linearGradient><linearGradient
        id="paint2_linear"
        x1="24.827"
        x2="2.069"
        y1="22.296"
        y2="45.054"
        gradientUnits="userSpaceOnUse"
        ><stop stop-color="#FF3A44"></stop><stop
        offset="1"
        stop-color="#C31162"></stop>
    </linearGradient><linearGradient
        id="paint3_linear"
        x1="7.297"
        x2="17.46"
        y1="0.176"
        y2="10.339"
        gradientUnits="userSpaceOnUse"
        ><stop stop-color="#32A071"></stop><stop
        offset="0.069"
        stop-color="#2DA771"></stop><stop
        offset="0.476"
        stop-color="#15CF74"></stop><stop
        offset="0.801"
        stop-color="#06E775"></stop><stop
        offset="1"
        stop-color="#00F076"></stop>
    </linearGradient>
    </defs>
</svg>