<?xml version="1.0" encoding="UTF-8" standalone="no"?>
<!-- Created with Inkscape (http://www.inkscape.org/) -->

<svg
   version="1.1"
   id="svg1"
   width="1024"
   height="1024"
   viewBox="0 0 1024 1024"
   sodipodi:docname="app_icon.svg"
   inkscape:version="1.3.2 (091e20e, 2023-11-25)"
   inkscape:export-filename="app_icon_adaptive.png"
   inkscape:export-xdpi="96"
   inkscape:export-ydpi="96"
   xmlns:inkscape="http://www.inkscape.org/namespaces/inkscape"
   xmlns:sodipodi="http://sodipodi.sourceforge.net/DTD/sodipodi-0.dtd"
   xmlns="http://www.w3.org/2000/svg"
   xmlns:svg="http://www.w3.org/2000/svg">
  <defs
     id="defs1" />
  <sodipodi:namedview
     id="namedview1"
     pagecolor="#ffffff"
     bordercolor="#999999"
     borderopacity="1"
     inkscape:showpageshadow="2"
     inkscape:pageopacity="0"
     inkscape:pagecheckerboard="0"
     inkscape:deskcolor="#d1d1d1"
     inkscape:lockguides="false"
     inkscape:zoom="0.41407278"
     inkscape:cx="375.53785"
     inkscape:cy="422.63102"
     inkscape:window-width="1512"
     inkscape:window-height="859"
     inkscape:window-x="0"
     inkscape:window-y="38"
     inkscape:window-maximized="1"
     inkscape:current-layer="g1" />
  <g
     inkscape:groupmode="layer"
     id="layer1"
     inkscape:label="background">
    <rect
       style="fill:#b2dfdb;fill-opacity:1;fill-rule:evenodd;stroke-width:3.53764;stroke-linecap:round;stroke-linejoin:round;stroke-opacity:0.721569;paint-order:stroke fill markers"
       id="rect1"
       width="1027.9927"
       height="1031.6641"
       x="-1.8356988"
       y="-7.3428054" />
  </g>
  <g
     inkscape:groupmode="layer"
     inkscape:label="Image"
     id="g1">
    <g
       id="g2">
      <g
         id="g9"
         style="display:inline"
         inkscape:label="g9"
         transform="matrix(0.7804947,0,0,0.76535928,93.798487,106.25807)">
        <path
           d="m 298.60705,197.17763 c 24.71231,55.04886 76.68778,69.86179 121.2656,83.42231 58.66558,16.62124 88.64718,41.17129 116.22823,92.80749 27.80062,-51.79584 83.22196,-94.41643 138.36918,-98.43048 64.29783,-5.03361 82.64601,-38.11944 101.67631,-82.12223 -15.55656,8.54485 -37.13492,21.99464 -53.71036,27.93463 -44.52702,15.8134 -79.8231,0.26315 -119.71521,-11.05334 -52.16675,-14.16188 -90.39933,-13.63599 -141.0994,2.98375 -36.39024,12.55478 -86.8,23.51574 -131.43268,6.11763 -12.77229,-5.7594 -15.03558,-9.61753 -31.58167,-21.65976 z"
           style="display:inline;fill:#60d1bc;stroke-width:1.02366"
           id="path17"
           sodipodi:nodetypes="cccccccccc"
           inkscape:label="path17"
           sodipodi:insensitive="true" />
        <path
           d="m 282.62936,195.86715 c -14.65439,3.31186 -13.05903,10.86101 -4.62926,21.68936 11.67494,22.00407 28.66884,38.28389 48.80218,52.68135 17.5572,5.91847 -3.17755,24.63561 -11.89298,30.07941 -39.24881,28.79683 -63.41401,64.74689 -66.54717,113.80683 -0.89567,24.05556 -1.37139,47.89717 7.2167,70.71023 -6.11288,18.07129 -9.4706,35.96588 -12.69669,55.36207 -22.02121,95.07744 14.62335,198.85986 111.0761,259.40393 9.57108,3.64731 42.38478,17.87227 55.48306,22.35956 l 8.22702,-17.78293 c 19.17267,-22.44105 62.27389,-19.38043 77.66355,-1.84574 l 2.49828,36.59475 c 13.8288,0.3203 57.79188,0.87384 73.54916,0.36136 0,0 8.3552,-26.84621 26.67109,-45.73342 18.39523,-29.54872 58.04594,33.05207 58.04594,33.05207 14.75104,-6.76156 42.58724,-22.35952 56.73393,-29.84826 18.02324,-1.61772 27.38524,-13.2593 41.71748,-22.89355 28.40074,-26.49305 50.21424,-70.5506 65.77992,-106.57241 28.13585,-57.59038 26.959,-113.09972 -1.13143,-170.90485 -9.1539,-13.23716 -1.11465,-34.98443 -1.55403,-49.34064 7.84564,-50.00359 -9.3796,-92.09288 -44.27481,-128.9331 -12.3428,-14.1262 -37.27816,-21.61062 -52.50382,-32.2377 89.62847,-56.12991 82.96775,-108.00616 55.56787,-79.29859 -10.05715,12.30489 -15.44481,24.21282 -28.2507,34.88068 -26.72789,29.82708 -67.78652,34.67823 -105.51622,41.81384 -33.09577,8.6214 -62.82241,31.40256 -85.17701,57.21282 -9.69853,9.59192 -14.11355,29.01821 -22.53883,38.35081 -24.85793,-48.45446 -73.52197,-99.77755 -127.40097,-107.81847 -39.35671,-6.08321 -77.66185,-25.50234 -100.01834,-59.34467 -7.59544,-10.82211 -8.13608,-17.73742 -24.90002,-15.80474 z m 1.52331,-3.10701 c 14.75207,5.50411 16.99796,17.13674 27.82546,27.38071 23.30561,30.81051 60.48896,47.01796 97.82753,52.98309 50.27353,7.9388 93.28159,51.14822 118.27449,95.48805 5.83583,16.108 15.1135,-7.61621 20.38813,-13.8494 26.3232,-41.78881 71.61045,-75.93153 120.07965,-82.71873 39.97057,-7.08054 74.45493,-15.07959 95.99224,-50.29738 5.6686,-9.6989 18.1393,-20.84057 24.26864,-25.19169 32.28811,7.5771 -9.39768,47.25643 -59.25622,77.53819 49.47263,32.69494 87.0379,81.63481 86.68276,152.13573 0.67721,18.58967 -5.989,42.60376 -10.79578,60.43624 18.78783,36.56627 31.90727,76.84169 27.91539,117.92102 -8.31261,99.15885 -151.08013,322.23611 -127.4108,20.71174 42.39221,-107.98907 228.93167,-247.19295 26.5689,-324.85781 -62.65081,-20.96771 -104.00126,-8.70341 -136.47944,31.86656 -14.28653,15.86617 -40.28987,52.95177 -49.20697,71.84994 -6.6574,12.49116 -18.79749,10.27682 -23.88403,-2.67094 C 509.99788,369.20749 486.639,344.7185 456.98638,325.63795 419.59,299.5887 366.31778,295.92052 328.48922,323.09759 c -36.16138,25.24503 -67.2089,69.90757 -63.25083,113.98743 5.36443,62.29633 35.37349,90.17803 61.06996,146.53255 19.2838,37.63753 79.41315,128.8778 40.35015,211.42271 -13.58127,18.95275 -127.54898,-73.81925 -130.74352,-202.5501 -0.72882,-36.10637 6.68424,-68.79308 23.82443,-100.66798 -4.34093,-19.65542 -8.28644,-43.04404 -6.0475,-63.62209 -2.42752,-53.64961 22.64871,-98.32765 65.36657,-129.40993 9.00152,-5.30081 30.8016,-20.31704 12.78187,-26.55447 -23.80615,-15.70093 -47.00805,-38.47248 -58.67934,-64.5356 -2.16444,-11.97738 -1.51889,-15.84887 10.99166,-14.93997 z M 790.0666,342.08835 c 68.18395,65.51197 27.77942,190.18687 -63.20256,210.60491 -44.66957,16.67025 -119.51236,3.30452 -152.81629,-28.6787 9.04829,-48.99118 -85.73433,-48.84396 -77.00001,0.82617 -33.8521,30.2768 -98.25408,46.99576 -142.59814,30.03631 -66.77583,-18.43093 -100.19867,-98.79708 -81.12846,-165.11204 12.64075,-49.00243 68.02327,-93.85189 120.23487,-92.88279 57.08322,0.5405 110.65844,49.12414 130.49577,100.80477 2.79016,13.77453 9.84042,17.9497 20.36076,5.11031 10.33679,-10.84555 19.22474,-35.87411 28.61543,-47.88308 47.80409,-79.73151 168.93365,-74.40103 217.03863,-12.82586 z M 533.47028,566.81886 c 35.88181,-1.28668 84.40241,15.79305 118.35003,58.74412 12.06908,16.95893 40.42964,49.55966 38.12813,72.93102 -0.40202,23.20605 1.84692,44.0167 10.64153,65.75562 -5.10096,9.16274 -20.64711,21.47889 -34.274,25.84033 -7.68631,2.46009 -16.72727,7.08917 -24.20272,-0.64146 -28.23302,-1.51279 -52.26122,5.08488 -59.1416,16.70576 -6.88039,11.62087 -28.38196,7.93714 -41.74804,8.29233 -13.36608,0.3552 -35.1556,0.7581 -44.53891,-4.33374 -7.53638,-30.19855 -39.18339,-36.78972 -64.57184,-19.58192 -7.97403,4.95111 -16.75206,2.87621 -24.59551,0.4842 -14.89959,-4.54392 -29.20682,-18.82801 -38.25748,-26.83598 7.99305,-24.80242 15.77435,-36.21067 14.43377,-62.17512 2.2401,-26.04153 22.43269,-53.96231 35.96047,-71.40154 32.47636,-41.87249 78.58041,-62.92233 113.81617,-63.78362 z"
           style="display:inline;fill:#60d1bc;fill-opacity:1"
           id="path16"
           sodipodi:nodetypes="ccccccccccccccccccccccccccccccccccccccccccccccccccccccccccccccccccccccccccaczzccacccc"
           sodipodi:insensitive="true" />
        <path
           style="display:inline;fill:#e9faf6;fill-opacity:1;stroke:none;stroke-width:1.74564;stroke-linecap:round;stroke-linejoin:round;paint-order:stroke fill markers"
           d="M 240.87082,591.62017 260.83601,487.9686 c 1.89872,-19.80695 94.32648,154.30189 95.47636,157.05301 27.81523,66.54868 17.17538,130.34263 -1.20908,140.64392 -26.64967,4.10197 -103.16572,-81.59452 -114.23247,-194.04536 z"
           id="path57"
           sodipodi:nodetypes="ccssc"
           inkscape:label="path57"
           sodipodi:insensitive="true" />
        <path
           style="display:inline;fill:#e9faf6;fill-opacity:1;stroke:none;stroke-width:1.74564;stroke-linecap:round;stroke-linejoin:round;paint-order:stroke fill markers"
           d="m 736.27489,569.3457 c 25.63417,-18.69987 62.61826,-78.48894 78.2855,-51.28548 46.26035,80.32311 -10.89358,217.84087 -80.27644,258.01482 -22.52842,13.04437 -49.4744,-143.04572 1.99094,-206.72934 z"
           id="path61"
           inkscape:label="path61"
           sodipodi:nodetypes="ssss"
           sodipodi:insensitive="true" />
        <path
           d="m 284.54775,186.04386 c -15.70271,-2.01493 -24.15659,17.69908 -14.8516,29.32866 13.57631,26.23477 35.00067,47.99038 60.3516,63.03462 -4.19621,8.54354 -17.71577,11.39928 -24.48828,19.17774 -35.53879,28.73999 -60.72348,72.37386 -62.91633,118.37361 -1.00186,23.45752 0.12387,47.03502 8.40463,69.27092 -5.62064,17.43557 -15.54802,34.34833 -18.90241,52.96556 -18.67579,75.74963 9.58876,157.6339 63.07896,212.75362 17.13795,18.5816 36.87744,34.73277 58.21603,48.25152 15.9529,3.89118 17.41995,-15.72684 22.17493,-26.18046 13.94706,-39.98458 14.69522,-84.21326 4.67452,-125.11315 -5.06906,-20.87313 -17.75173,-39.42077 -23.24205,-59.70639 13.32818,-0.59406 30.87626,10.97246 39.80701,-4.12429 5.90364,-10.47301 -3.9126,-23.5036 -15.69844,-23.10653 -54.29521,-9.98486 -96.85982,-57.6467 -105.42004,-111.46756 -4.26559,-30.86188 0.85309,-63.48908 18.39361,-89.77534 23.01757,-39.89582 72.03243,-63.84564 117.50455,-53.1807 49.76323,10.22851 88.85825,50.6366 106.49528,97.15442 3.40454,13.44677 22.81082,19.91177 30.76198,6.74733 9.44011,-14.99481 14.42703,-33.30658 26.05813,-47.40554 30.45087,-44.16786 89.78943,-71.68281 142.2161,-52.69915 55.70523,19.32334 88.50825,83.12467 78.08169,140.16358 -8.08045,54.37464 -52.16274,101.24272 -106.48118,111.13909 -17.61135,-0.85173 -20.37956,28.47986 -2.72444,30.27027 8.96351,1.89767 21.35308,-5.23087 28.56624,-2.42066 -6.5687,21.52575 -20.44223,42.26254 -24.92697,65.27916 -6.67167,26.09851 -5.2692,53.65224 -3.42673,80.23492 4.16345,20.45824 8.67694,42.06607 18.61183,60.33296 9.31833,11.00963 22.85168,-2.86817 31.68123,-8.55798 58.45358,-43.48717 103.46484,-110.29188 107.90816,-184.33872 3.76709,-40.02125 -6.24701,-80.17083 -24.32808,-115.78042 13.25766,-42.64437 13.05211,-90.77892 -7.47425,-131.11878 -15.40505,-31.55613 -41.0434,-57.54701 -71.51208,-74.84606 5.32417,-9.02179 19.41623,-12.9382 26.70307,-21.85156 16.43402,-14.84736 31.92129,-33.39022 37.88672,-54.86133 2.51791,-15.32328 -19.33248,-24.00572 -28.72656,-11.65234 -18.65456,42.39561 -60.39574,71.15212 -105.44036,78.95678 -36.69686,5.71345 -72.35585,20.20859 -99.4321,46.18572 -14.57862,13.30923 -25.08612,31.4518 -36.0375,46.72273 -12.68162,-16.8676 -23.97107,-37.52317 -41.44358,-51.21377 -27.46018,-24.91119 -63.28647,-37.16727 -99.32641,-42.98329 -42.37771,-8.01276 -80.2585,-35.81589 -99.40796,-74.65142 -1.64478,-5.44949 -6.97708,-6.71237 -11.36892,-9.30777 z m 169,42.01367 c -14.65049,3.61081 -13.28465,26.00443 1.49919,28.25226 27.7738,7.21541 51.43464,24.47813 69.28995,46.63042 6.7577,10.83897 20.2341,5.47809 25.65349,-3.64219 16.17411,-18.88989 36.3488,-34.34481 60.70652,-40.85264 11.17606,-1.2455 23.6281,-11.97116 16.15325,-23.49731 -10.04342,-14.10737 -28.34732,-2.0061 -41.24433,1.19383 -19.84259,6.40375 -35.39031,20.58292 -49.58737,35.27501 -17.89671,-20.0192 -40.86836,-35.04666 -67.16912,-41.27775 -4.82987,-1.91982 -10.22435,-1.33686 -15.30158,-2.08163 z m 39.81743,287.74384 c 0.36502,18.41346 7.44479,32.29709 16.28899,49.02014 8.06721,15.25388 18.38146,26.09776 25.60295,38.20672 9.16928,-12.84196 18.31289,-24.7255 28.12655,-38.78754 9.10054,-16.06682 14.48697,-31.59308 12.81012,-50.3758 -1.52299,-17.05924 -15.93133,-30.18054 -43.35765,-30.38293 -28.58107,1.35684 -39.80799,15.31785 -39.47096,32.31941 z m -223.25639,4.23893 c 87.40989,139.06941 113.87485,124.05184 5.08015,126.124 -18.82487,-13.33811 -19.6121,-46.51304 -20.60497,-56.95581 -0.99288,-10.44276 -1.48494,-42.49517 15.52482,-69.16819 z m 524.78687,-9.72102 c 8.03314,5.28557 21.19477,39.75783 22.83988,49.28241 4.14316,23.98731 -2.88356,55.90192 -17.64427,78.64016 -139.0706,15.67225 -57.59626,-3.10141 -5.19561,-127.92257 z M 455.40284,684.75033 c -15.8077,-0.50179 -16.57227,-24.74973 -0.25453,-25.50819 16.31774,-0.75846 29.08029,0.65143 46.95285,0.21872 17.87256,-0.4327 17.20239,24.52924 0.26569,25.28947 -15.79908,0.70917 -31.9666,0.47606 -46.96401,0 z M 281.04775,672.20011 c 22.56003,0.48222 42.98518,-1.33402 65.95574,0.009 9.00816,0.52683 7.3696,27.72846 1.99801,29.89708 -12.41743,5.01319 -26.11455,3.92824 -48.63393,2.22366 -8.72356,-0.66032 -18.70077,-23.90478 -19.31982,-32.13013 z m 509.5,0.5 c -3.44586,11.58091 -15.72858,28.93324 -27.69244,30.75793 -6.55139,0.9992 -35.47263,2.55232 -42.35104,-1.58416 -6.79037,-4.08354 -8.61353,-28.96702 -0.32909,-29.40424 14.97347,-0.79023 47.50014,0.007 70.37257,0.23047 z m -441.11076,76.97705 c -4.04333,8.9957 -33.35211,-8.68048 -28.96849,-13.00373 6.92708,-6.83166 37.56573,-4.4325 28.96849,13.00373 z m 403.30452,-12.43091 c 0.50054,5.38223 -25.10356,23.30238 -30.84893,10.59196 -6.06159,-16.68271 23.18526,-8.39537 30.84893,-10.59196 z m -302.33048,39.95386 c -23.96017,4.04872 -43.73084,27.57336 -39.45991,52.3131 2.27828,13.70749 -5.49563,32.21685 7.17236,41.94653 10.94853,8.65057 28.17942,-3.85925 23.93404,-17.25415 2.01536,-13.7316 -5.42271,-32.24408 7.03575,-41.891 11.56105,-8.21297 26.12676,6.13893 22.53882,18.64352 2.30652,14.08504 -5.954,33.55876 8.96256,42.29473 13.53849,5.07102 25.32967,-8.61784 22.25586,-21.82421 0.27802,-20.77621 4.53495,-44.91304 -12.03007,-60.91712 -10.47735,-11.04312 -25.5584,-14.75893 -40.40941,-13.3114 z m 156.13672,0.0234 c -25.9126,3.63857 -43.16232,30.6315 -39.35855,55.76184 2.01104,12.05949 -2.78709,26.81465 5.54215,36.71472 10.60196,11.75927 31.07751,-0.66389 26.52904,-15.6682 2.18997,-13.26704 -5.11415,-41.00653 9.35828,-42.54657 15.23975,-0.96032 20.08651,4.33352 20.42159,18.76984 0.33508,14.43632 -4.01766,28.4196 3.91221,39.83559 11.4198,10.92337 30.69665,-1.76009 26.83622,-16.64557 0.1155,-21.92112 5.93608,-48.81167 -14.20421,-64.22086 -9.80406,-10.77539 -25.14713,-12.99589 -39.03673,-12.00079 z m -33.40796,-91.27937 c -15.8077,-0.50179 -16.58668,-25.18453 -0.25453,-25.50819 16.31774,-0.32337 29.08029,0.65143 46.95285,0.21872 17.87256,-0.4327 17.20239,24.52924 0.26569,25.28947 -15.79908,0.70917 -31.9666,0.47606 -46.96401,0 z m -150.40142,55.3961 c -15.8077,-0.50179 -16.57227,-24.74973 -0.25453,-25.50819 16.31774,-0.75846 29.08029,0.65143 46.95285,0.21872 17.87256,-0.4327 17.20239,24.52924 0.26569,25.28947 -15.79908,0.70917 -31.9666,0.47606 -46.96401,0 z m 183.59547,-26.68887 c -15.8077,0.50179 -16.57227,24.74973 -0.25453,25.50819 16.31774,0.75846 29.08029,-0.65143 46.95285,-0.21872 17.87256,0.4327 17.20239,-24.52924 0.26569,-25.28947 -15.79908,-0.70917 -31.9666,-0.47606 -46.96401,0 z"
           style="display:inline;fill:#04434b"
           id="path15"
           sodipodi:nodetypes="cccccccccccccccccccccccccccccccccccccccccccccccccccccssccscsccsccsccszzsscssscccssccccccccccccccccccsccczccccssssssssssssssss"
           sodipodi:insensitive="true" />
        <path
           d="m 519.65758,715.22917 c -15.8077,0.50179 -15.98193,23.56906 0.33581,24.32752 16.31774,0.75846 13.73147,0.52924 31.60403,0.96195 17.87256,0.4327 17.20239,-24.52924 0.26569,-25.28947 -15.79908,-0.70917 -17.20812,-0.47606 -32.20553,0 z"
           style="display:inline;fill:#04434b"
           id="path1"
           sodipodi:nodetypes="sssss"
           sodipodi:insensitive="true" />
        <ellipse
           style="fill:#04434b;fill-opacity:1;stroke:none;stroke-width:1.8;stroke-linecap:round;stroke-linejoin:round;paint-order:stroke fill markers"
           id="path13-2"
           cx="-540.41827"
           cy="412.69153"
           rx="60.391918"
           ry="57.896385"
           transform="matrix(-1,0,0,1,-126.77311,21.960697)" />
        <ellipse
           style="fill:#e9faf6;fill-opacity:1;stroke:none;stroke-width:1.8;stroke-linecap:round;stroke-linejoin:round;paint-order:stroke fill markers"
           id="path14-2"
           cx="-551.39868"
           cy="415.68619"
           rx="16.470522"
           ry="15.971416"
           transform="matrix(-1,0,0,1,-126.77311,21.960697)" />
        <ellipse
           style="fill:#04434b;fill-opacity:1;stroke:none;stroke-width:1.8;stroke-linecap:round;stroke-linejoin:round;paint-order:stroke fill markers"
           id="path13"
           cx="779.44598"
           cy="410.6015"
           rx="60.391918"
           ry="57.896385"
           transform="translate(-126.77311,21.960697)" />
        <ellipse
           style="display:inline;fill:#e9faf6;fill-opacity:1;stroke:none;stroke-width:1.8;stroke-linecap:round;stroke-linejoin:round;paint-order:stroke fill markers"
           id="path14"
           cx="768.46564"
           cy="413.59616"
           rx="16.470522"
           ry="15.971416"
           transform="translate(-126.77311,21.960697)" />
      </g>
      <path
         style="fill:#ffffff;fill-opacity:1;stroke:none;stroke-width:2.55383;stroke-linecap:round;stroke-linejoin:round;paint-order:stroke fill markers"
         d="m 391.31761,534.51289 c -18.28452,-3.0415 -34.71377,-11.92584 -50.26932,-27.1838 -6.43787,-6.31471 -14.19894,-15.73281 -17.46849,-21.1981 -20.62794,-34.48115 -19.23136,-75.59899 3.68102,-108.37554 18.71883,-26.77763 50.47006,-41.14334 81.57512,-36.90834 36.03429,4.90612 67.54574,29.81245 85.56872,67.63265 3.45764,7.25565 7.30629,14.02194 8.55258,15.03621 1.24627,1.01426 5.05014,2.15185 8.45303,2.52797 5.63053,0.62233 6.54516,0.26654 10.16775,-3.95517 2.18938,-2.55146 6.48736,-9.95951 9.55109,-16.46234 25.67388,-54.49338 84.1754,-79.83911 131.65571,-57.03971 15.58431,7.48337 33.02953,24.9578 41.23473,41.30375 8.36167,16.65767 10.93662,27.23653 10.94326,44.95907 0.0124,33.06713 -16.45444,64.19266 -44.25123,83.6434 -19.28153,13.49221 -33.54962,17.18774 -57.24566,14.82705 -19.51762,-1.94441 -34.8181,-6.01646 -50.23083,-13.36839 -15.5655,-7.42478 -18.12046,-9.94439 -18.88074,-18.61942 -0.31904,-3.64043 -1.61832,-8.76445 -2.88726,-11.3867 -8.58253,-17.73558 -48.65362,-19.09469 -59.418,-2.0153 -2.33638,3.70704 -3.25243,7.39681 -3.33269,13.42368 -0.0993,7.45965 -0.54551,8.65395 -4.35396,11.65351 -17.86852,14.07346 -60.83451,25.20004 -83.04483,21.50552 z m 46.26677,-55.38881 c 10.22979,-4.50182 19.11157,-13.12666 23.637,-22.95316 4.1935,-9.10577 4.1935,-25.10716 0,-34.21293 -4.25668,-9.24293 -13.65741,-18.69291 -23.13649,-23.25769 -7.01425,-3.37781 -9.78773,-3.89243 -20.97769,-3.89243 -10.9541,0 -14.11269,0.55992 -20.98694,3.72031 -9.859,4.53261 -18.18817,12.44388 -22.82254,21.67748 -2.85547,5.68927 -3.46787,9.03558 -3.45134,18.8588 0.0171,10.17114 0.58243,12.99244 3.81185,19.02351 4.04487,7.55396 13.78161,17.23542 21.03085,20.91147 12.12619,6.14909 29.09354,6.19839 42.8953,0.12464 z m 186.62669,-1.56715 c 9.8096,-4.31691 18.7591,-13.06069 23.3272,-22.79098 4.47601,-9.53413 4.2274,-26.39873 -0.53179,-36.07357 -4.38281,-8.90971 -12.96618,-17.35535 -22.1498,-21.79437 -6.15795,-2.97652 -9.17541,-3.46482 -21.49132,-3.47782 -12.8778,-0.0136 -15.08384,0.3757 -21.80162,3.84733 -16.67701,8.61836 -25.53183,22.70025 -25.39882,40.39196 0.0562,7.47398 0.93303,12.39602 3.01624,16.93104 10.93881,23.81299 39.8801,34.03411 65.02991,22.96641 z"
         id="path62" />
      <path
         style="fill:#ffffff;fill-opacity:1;stroke:none;stroke-width:2.55383;stroke-linecap:round;stroke-linejoin:round;paint-order:stroke fill markers"
         d="m 487.63045,726.73226 c -0.83716,-0.96592 -3.00709,-4.60128 -4.82208,-8.07858 -3.79389,-7.26866 -12.92134,-14.68555 -20.66914,-16.79557 -12.83437,-3.49531 -27.6512,-0.28249 -36.36812,7.88591 -3.16033,2.96147 -4.62455,3.40024 -8.59653,2.57607 -6.70461,-1.39117 -20.23075,-8.61217 -24.69923,-13.18581 l -3.74906,-3.83729 2.97917,-11.15244 c 2.02235,-7.57067 3.29964,-18.14644 3.97703,-32.92948 0.99102,-21.62747 1.03542,-21.84943 6.46417,-32.31433 16.39846,-31.61108 45.71816,-59.35761 74.73761,-70.72753 16.12903,-6.3194 14.87265,-6.7001 24.929,7.55385 4.90454,6.95173 9.48745,12.29401 10.18424,11.87172 0.69679,-0.42228 5.20895,-6.1225 10.02703,-12.66714 4.81807,-6.54463 9.5663,-11.89933 10.55162,-11.89933 9.78222,0 37.54517,13.4694 51.95139,25.2046 10.19646,8.30595 27.68519,29.57182 37.75825,45.91311 l 5.01464,8.13514 0.86908,26.05596 c 0.68013,20.39102 1.54689,28.49966 3.98663,37.29574 l 3.11756,11.23977 -3.98664,3.24046 c -5.21463,4.23862 -15.3404,9.33839 -23.00344,11.58552 -5.81537,1.70531 -6.31776,1.6157 -10.02929,-1.78882 -6.25353,-5.73625 -13.24013,-8.49635 -23.29191,-9.20161 -16.2416,-1.13954 -29.27735,6.71937 -36.05028,21.73378 l -2.72574,6.04252 h -23.51693 c -17.04658,0 -23.93571,-0.48321 -25.03903,-1.75622 z m -20.09591,-55.13294 c 3.7353,-3.31485 3.89905,-12.01886 0.28641,-15.22485 -2.14373,-1.90242 -6.44353,-2.33622 -24.8256,-2.50458 -13.84664,-0.12682 -23.3449,0.38 -25.18111,1.34366 -6.18618,3.24653 -5.03172,16.37695 1.55989,17.74174 1.67329,0.34645 4.33181,0.93705 5.90785,1.31243 1.57603,0.3754 11.07977,0.50347 21.11942,0.28463 15.26489,-0.33274 18.72538,-0.8163 21.13314,-2.95303 z m 64.48769,-0.71465 c 3.98281,-3.90559 3.69038,-10.55862 -0.65126,-14.81607 -3.31106,-3.24685 -4.4462,-3.44856 -19.40731,-3.44856 -14.96112,0 -16.09625,0.20171 -19.40732,3.44856 -6.05364,5.93625 -3.95343,13.69619 4.36506,16.12828 2.36312,0.69091 10.58281,1.31054 18.26596,1.37696 12.15709,0.1051 14.3411,-0.24377 16.83487,-2.68917 z m 79.63635,-0.61978 c 2.96369,-3.98025 2.53901,-11.52649 -0.83483,-14.83491 -2.62562,-2.57471 -4.77584,-2.80994 -25.68559,-2.80994 h -22.8201 l -2.9695,3.7019 c -3.96486,4.94276 -3.74517,9.7149 0.6454,14.02033 3.60756,3.5376 3.66164,3.54389 26.62441,3.09733 20.8249,-0.40499 23.20233,-0.70641 25.04021,-3.17471 z M 493.46769,627.52616 c 3.54792,-4.30165 3.48963,-10.69602 -0.12985,-14.2453 -2.62672,-2.57579 -4.77585,-2.80995 -25.78959,-2.80995 -21.01374,0 -23.16287,0.23416 -25.78959,2.80995 -4.93514,4.83943 -3.08462,14.26718 3.31736,16.90079 1.72152,0.70819 12.69838,1.1467 24.39303,0.97448 20.43209,-0.3009 21.36988,-0.44275 23.99864,-3.62997 z m 91.56648,1.20938 c 3.60211,-3.53227 3.79866,-11.41 0.35819,-14.35675 -3.19553,-2.73696 -42.08363,-4.84122 -48.0893,-2.60215 -6.98988,2.60601 -8.62224,12.0766 -3.0272,17.56313 1.85564,1.81966 6.24363,2.20571 25.07105,2.20571 20.91141,0 23.0616,-0.23521 25.68726,-2.80994 z"
         id="path63" />
    </g>
  </g>
</svg>
